<?xml version="1.0" encoding="iso-8859-1"?>
<!-- Generator: Adobe Illustrator 19.0.0, SVG Export Plug-In . SVG Version: 6.00 Build 0)  -->
<svg version="1.1" id="Layer_1" xmlns="http://www.w3.org/2000/svg" xmlns:xlink="http://www.w3.org/1999/xlink" x="0px" y="0px"
	 viewBox="0 0 511.844 511.844" style="enable-background:new 0 0 511.844 511.844;" xml:space="preserve">
<g>
	<polygon style="fill:#FECD57;" points="100.599,186.092 61.275,164.763 61.275,350.674 85.931,365.358 120.592,370.043 
		145.249,356.048 145.249,170.761 	"/>
	<polygon style="fill:#FECD57;" points="402.537,186.092 363.236,164.763 363.236,350.674 387.885,365.358 422.531,370.043 
		447.211,356.048 447.211,170.761 	"/>
	<polygon style="fill:#FECD57;" points="255.926,107.443 195.233,78.125 188.572,305.376 203.895,319.902 237.221,343.364 
		262.549,350.674 318.531,319.902 318.531,78.125 	"/>
</g>
<g>
	<path style="fill:#F5BA45;" d="M319.906,0c-5.889,0-10.652,4.772-10.652,10.661v56.467l-21.338,10.669V31.99
		c0-5.889-4.779-10.661-10.652-10.661c-5.896,0-10.678,4.772-10.678,10.661v56.467l-2.248,1.125
		c-3.109,1.555-6.045,3.874-8.646,6.662c-2.484-2.569-5.256-4.702-8.178-6.162l-2.249-1.125V31.99
		c0-5.889-4.78-10.661-10.669-10.661s-10.66,4.772-10.66,10.661v46.307l-21.33-10.669V10.661c0-5.889-4.771-10.661-10.66-10.661
		s-10.661,4.772-10.661,10.661v67.636v7.013v224.878c0,11.746,8.583,25.617,19.072,30.865l44.908,22.461v148.33h21.321V363.015
		l44.916-22.462c10.482-5.248,19.057-19.119,19.057-30.865V94.971V77.797V10.661C330.559,4.773,325.795,0,319.906,0z
		 M245.265,120.947v50.797l-35.372-17.682c-3.265-1.633-7.287-8.131-7.287-11.785V91.472l35.373,17.69
		C241.243,110.794,245.265,117.292,245.265,120.947z M245.265,195.589v58.771l-35.372-17.683c-3.265-1.64-7.287-8.138-7.287-11.793
		v-50.617L245.265,195.589z M202.606,310.188v-53.312l42.659,21.322v61.48l-35.372-17.697
		C206.629,320.34,202.606,313.842,202.606,310.188z M309.254,309.688c0,3.654-4.031,10.152-7.295,11.793l-35.373,17.697v-61.48
		l42.668-21.322V309.688z M309.254,224.385c0,3.655-4.031,10.153-7.295,11.793l-35.373,17.683V195.09l42.668-21.321V224.385z
		 M309.254,141.777c0,3.655-4.031,10.153-7.295,11.785l-35.373,17.682v-50.797c0-3.654,4.023-10.152,7.287-11.785l35.381-17.689
		v3.998V141.777z"/>
	<path style="fill:#F5BA45;" d="M447.867,127.961c-5.889,0-10.652,4.772-10.652,10.661v24.438l-21.338,7.107v-10.216
		c0-5.889-4.779-10.661-10.652-10.661c-5.904,0-10.686,4.772-10.686,10.661v10.216l-21.305-7.107v-24.062
		c0-5.89-4.781-10.661-10.686-10.661c-5.873,0-10.652,4.771-10.652,10.661v38.285v2.147v167.121
		c0,11.746,9.107,24.367,20.229,28.085l22.414,7.467v129.741h21.338V382.103l22.432-7.467c11.121-3.718,20.211-16.339,20.211-28.085
		V179.055v-1.772v-38.661C458.52,132.734,453.756,127.961,447.867,127.961z M394.539,198.604v1.78v32.615l-15.666-5.225
		c-2.375-0.797-5.639-5.335-5.639-7.842v-34.388l15.666,5.225C391.276,191.559,394.539,196.105,394.539,198.604z M394.539,295.645
		l-15.666-5.232c-2.375-0.781-5.639-5.327-5.639-7.842V248.37l21.305,7.107L394.539,295.645L394.539,295.645z M378.873,354.393
		c-2.375-0.781-5.639-5.327-5.639-7.842v-35.536l21.305,7.107v32.115v9.388L378.873,354.393z M437.215,346.551
		c0,2.515-3.281,7.061-5.654,7.842l-15.684,5.232v-9.388v-32.115l21.338-7.107L437.215,346.551L437.215,346.551z M437.215,282.57
		c0,2.515-3.281,7.061-5.654,7.842l-15.684,5.232v-40.168l21.338-7.107L437.215,282.57L437.215,282.57z M437.215,219.933
		c0,2.507-3.281,7.045-5.654,7.842L415.877,233v-32.615v-1.78c0-2.499,3.281-7.045,5.654-7.834l15.684-5.225V219.933z"/>
	<path style="fill:#F5BA45;" d="M149.295,127.961c-5.889,0-10.669,4.772-10.669,10.661v24.438l-21.321,7.107v-10.216
		c0-5.889-4.78-10.661-10.668-10.661s-10.661,4.772-10.661,10.661v10.216l-21.33-7.107v-24.062c0-5.89-4.772-10.661-10.661-10.661
		s-10.661,4.771-10.661,10.661v38.285v2.147v167.121c0,11.746,9.099,24.367,20.229,28.085l22.423,7.467v129.741h21.329V382.103
		l22.423-7.467c11.121-3.718,20.229-16.339,20.229-28.085V179.055v-1.772v-38.661C159.956,132.734,155.184,127.961,149.295,127.961z
		 M95.975,198.604v1.78v32.615L80.3,227.774c-2.382-0.797-5.654-5.335-5.654-7.842v-34.388l15.683,5.225
		C92.703,191.559,95.975,196.105,95.975,198.604z M95.975,295.645L80.3,290.413c-2.382-0.781-5.654-5.327-5.654-7.842V248.37
		l21.33,7.107L95.975,295.645L95.975,295.645z M80.3,354.393c-2.382-0.781-5.654-5.327-5.654-7.842v-35.536l21.33,7.107v32.115
		v9.388L80.3,354.393z M138.626,346.551c0,2.515-3.271,7.061-5.646,7.842l-15.675,5.232v-9.388v-32.115l21.321-7.107V346.551z
		 M138.626,282.57c0,2.515-3.271,7.061-5.646,7.842l-15.675,5.232v-40.168l21.321-7.107V282.57z M138.626,219.933
		c0,2.507-3.271,7.045-5.646,7.842L117.305,233v-32.615v-1.78c0-2.499,3.272-7.045,5.647-7.834l15.674-5.225V219.933z"/>
</g>
<g>
</g>
<g>
</g>
<g>
</g>
<g>
</g>
<g>
</g>
<g>
</g>
<g>
</g>
<g>
</g>
<g>
</g>
<g>
</g>
<g>
</g>
<g>
</g>
<g>
</g>
<g>
</g>
<g>
</g>
</svg>
