<?xml version="1.0" encoding="iso-8859-1"?>
<!-- Generator: Adobe Illustrator 19.0.0, SVG Export Plug-In . SVG Version: 6.00 Build 0)  -->
<svg version="1.1" id="Layer_1" xmlns="http://www.w3.org/2000/svg" xmlns:xlink="http://www.w3.org/1999/xlink" x="0px" y="0px"
	 viewBox="0 0 511.842 511.842" style="enable-background:new 0 0 511.842 511.842;" xml:space="preserve">
<path style="fill:#8AC054;" d="M462.281,72.648c-4.172-4.17-10.92-4.186-15.074-0.031l-54.483,54.28l4.077-78.46
	c0.297-5.881-4.218-10.895-10.106-11.2c-5.873-0.305-10.888,4.21-11.185,10.099l-4.561,87.848l15.183,0.789l13.809,13.847
	l62.31-62.098C466.42,83.566,466.436,76.818,462.281,72.648z"/>
<path style="fill:#9ED36A;" d="M429.432,43.836c-5.374-2.397-11.685,0.016-14.074,5.397c-0.109,0.266-0.203,0.531-0.297,0.804
	l-0.062-0.023l-35.832,80.343l19.493,8.693l35.833-80.343l-0.047-0.016c0.141-0.258,0.266-0.508,0.391-0.773
	C437.241,52.545,434.82,46.234,429.432,43.836z"/>
<path style="fill:#FB6D51;" d="M398.145,114.01c-26.883-11.996-56.468-4.28-66.059,17.237l-86.88,194.76l97.376,43.44
	l86.881-194.769C439.053,153.17,425.026,126.006,398.145,114.01z"/>
<g>
	<path style="fill:#E8563F;" d="M364.498,215.628L364.498,215.628c-5.389-2.406-11.684,0.016-14.074,5.389
		c-2.405,5.381,0,11.684,5.389,14.082v0.008l38.941,17.37l8.701-19.479L364.498,215.628z"/>
	<path style="fill:#E8563F;" d="M314.701,170.204l38.956,17.37l0,0c5.39,2.398,11.685-0.016,14.074-5.396
		c2.405-5.374,0-11.684-5.39-14.082l-38.941-17.37L314.701,170.204z"/>
</g>
<path style="fill:#8AC054;" d="M162.857,158.606c-0.922-5.818-6.389-9.778-12.208-8.856c-5.811,0.929-9.778,6.389-8.849,12.207
	l10.052,63.184l21.056-3.351L162.857,158.606z"/>
<path style="fill:#D94452;" d="M90.824,309.013c17.698,50.031,72.618,76.242,122.666,58.545
	c50.056-17.698,76.297-72.619,58.583-122.643c-17.689-50.031-72.61-76.25-122.657-58.544
	C99.36,204.068,73.134,258.982,90.824,309.013z"/>
<g>
	<rect y="197.38" style="fill:#F4BE8E;" width="85.3" height="127.96"/>
	<rect x="426.522" y="197.38" style="fill:#F4BE8E;" width="85.32" height="127.96"/>
</g>
<g>
	<rect y="240.03" style="fill:#FFD2A6;" width="511.84" height="127.95"/>
	<rect y="346.66" style="fill:#FFD2A6;" width="511.84" height="127.96"/>
</g>
<g>
	<path style="fill:#424953;" d="M53.312,293.345c0,5.889-4.772,10.654-10.661,10.654s-10.668-4.766-10.668-10.654
		s4.78-10.668,10.668-10.668S53.312,287.456,53.312,293.345z"/>
	<path style="fill:#424953;" d="M479.854,293.345c0,5.889-4.779,10.654-10.669,10.654c-5.889,0-10.669-4.766-10.669-10.654
		s4.78-10.668,10.669-10.668S479.854,287.456,479.854,293.345z"/>
	<path style="fill:#424953;" d="M53.312,421.29c0,5.905-4.772,10.67-10.661,10.67s-10.668-4.765-10.668-10.67
		c0-5.889,4.78-10.652,10.668-10.652S53.312,415.401,53.312,421.29z"/>
	<path style="fill:#424953;" d="M479.854,421.29c0,5.905-4.779,10.67-10.669,10.67c-5.889,0-10.669-4.765-10.669-10.67
		c0-5.889,4.78-10.652,10.669-10.652S479.854,415.401,479.854,421.29z"/>
</g>
<rect y="346.66" style="fill:#F4BE8E;" width="511.84" height="21.322"/>
<g>
</g>
<g>
</g>
<g>
</g>
<g>
</g>
<g>
</g>
<g>
</g>
<g>
</g>
<g>
</g>
<g>
</g>
<g>
</g>
<g>
</g>
<g>
</g>
<g>
</g>
<g>
</g>
<g>
</g>
</svg>
