<?xml version="1.0" encoding="iso-8859-1"?>
<!-- Generator: Adobe Illustrator 19.0.0, SVG Export Plug-In . SVG Version: 6.00 Build 0)  -->
<svg version="1.1" id="Layer_1" xmlns="http://www.w3.org/2000/svg" xmlns:xlink="http://www.w3.org/1999/xlink" x="0px" y="0px"
	 viewBox="0 0 511.844 511.844" style="enable-background:new 0 0 511.844 511.844;" xml:space="preserve">
<path style="fill:#965353;" d="M469.185,255.922c0-11.73-9.591-21.329-21.321-21.329H63.981c-11.73,0-21.321,9.599-21.321,21.329
	v234.585c0,11.747,9.591,21.337,21.321,21.337h383.883c11.73,0,21.321-9.59,21.321-21.337V255.922z"/>
<path style="fill:#9ED36A;" d="M447.863,234.593H63.981c-11.73,0-21.321,9.599-21.321,21.329v21.338h426.525v-21.338
	C469.185,244.192,459.594,234.593,447.863,234.593z"/>
<path style="fill:#8AC054;" d="M283.382,76.469c-32.614-33.388-96.97-35.778-114.73-35.778c-2.983,0-4.654,0.062-4.654,0.062
	s-5.155,81.218,32.911,120.19c11.856,12.145,27.586,18.236,43.315,18.236c15.229,0,30.459-5.709,42.222-17.167l0,0
	C306.297,138.646,306.734,100.368,283.382,76.469z"/>
<path style="fill:#79AA41;" d="M276.385,151.72c-3.719-5.554-9.154-12.746-16.152-21.369c-11.684-14.425-23.664-27.851-24.211-28.46
	c-1.827-2.038-4.42-3.382-7.356-3.546c-5.89-0.336-10.919,4.163-11.247,10.044c-0.172,2.944,0.875,5.67,2.702,7.709
	c18.854,21.103,40.394,47.899,42.394,54.171c-0.25-0.789-0.531-3.687,1.422-6.553l17.635,11.98
	C287.036,167.66,280.617,158.069,276.385,151.72z"/>
<path style="fill:#9ED36A;" d="M405.095,0c0,0-104.343,8.161-147.064,63.715c-26.179,34.052-19.837,82.873,14.167,109.1l0,0
	c14.121,10.833,30.788,16.073,47.314,16.073c23.352,0,46.439-10.458,61.777-30.405C423.996,102.938,405.095,0,405.095,0z"/>
<g>
	<rect x="127.962" y="234.592" style="fill:#8AC054;" width="21.321" height="42.667"/>
	<rect x="383.882" y="234.592" style="fill:#8AC054;" width="20.993" height="42.667"/>
</g>
<g>
	<path style="fill:#7F4545;" d="M170.87,330.571c0,5.889-4.78,10.669-10.669,10.669s-10.669-4.78-10.669-10.669
		s4.78-10.669,10.669-10.669S170.87,324.683,170.87,330.571z"/>
	<path style="fill:#7F4545;" d="M362.311,330.556c0,5.904-4.779,10.685-10.668,10.685s-10.669-4.78-10.669-10.685
		c0-5.873,4.78-10.653,10.669-10.653S362.311,324.683,362.311,330.556z"/>
	<path style="fill:#7F4545;" d="M170.87,458.532c0,5.889-4.78,10.669-10.669,10.669s-10.669-4.78-10.669-10.669
		s4.78-10.669,10.669-10.669S170.87,452.644,170.87,458.532z"/>
	<path style="fill:#7F4545;" d="M106.39,394.552c0,5.889-4.78,10.669-10.669,10.669s-10.669-4.78-10.669-10.669
		s4.78-10.669,10.669-10.669S106.39,388.663,106.39,394.552z"/>
	<path style="fill:#7F4545;" d="M426.54,394.552c0,5.889-4.779,10.669-10.668,10.669s-10.669-4.78-10.669-10.669
		s4.78-10.669,10.669-10.669S426.54,388.663,426.54,394.552z"/>
	<path style="fill:#7F4545;" d="M266.59,458.517c0,5.904-4.779,10.685-10.668,10.685s-10.669-4.78-10.669-10.685
		c0-5.873,4.78-10.653,10.669-10.653S266.59,452.644,266.59,458.517z"/>
	<path style="fill:#7F4545;" d="M362.311,458.517c0,5.904-4.779,10.685-10.668,10.685s-10.669-4.78-10.669-10.685
		c0-5.873,4.78-10.653,10.669-10.653S362.311,452.644,362.311,458.517z"/>
</g>
<path style="fill:#8AC054;" d="M348.018,81.413c-0.983-5.812-6.482-9.724-12.277-8.756c-1.593,0.273-3.03,0.883-4.28,1.734v-0.008
	c-1.125,0.773-27.913,19.361-51.438,52.851c-13.902,19.799-23.789,40.746-29.396,62.263c-3.858,14.815-5.687,29.889-5.452,45.096
	h0.078v138.294h0.109c0,0.109-0.016,0.219-0.016,0.344c0,5.873,4.765,10.652,10.653,10.652c5.888,0,10.668-4.779,10.668-10.652
	c0-0.438-0.031-0.875-0.078-1.281V234.593h-0.141c-0.594-32.748,9.654-64.418,30.632-94.526c21.29-30.545,46.22-47.931,46.47-48.103
	l-0.016-0.008C346.848,89.676,348.721,85.63,348.018,81.413z"/>
<path style="fill:#F5BA45;" d="M277.243,319.902h-14.026h-7.998h-20.618c-17.667,0-31.99,14.324-31.99,31.99v53.328
	c0,5.873,4.764,10.652,10.652,10.652c5.89,0,10.669-4.779,10.669-10.652v-53.328c0-5.873,4.78-10.652,10.669-10.652h20.618h7.998
	h14.026c5.89,0,10.669,4.779,10.669,10.652v75.087h0.016c0.234,5.686,4.904,10.231,10.652,10.231
	c5.732,0,10.403-4.546,10.638-10.231h0.016v-75.087C309.234,334.227,294.91,319.902,277.243,319.902z"/>
<path style="fill:#FECD57;" d="M245.253,277.26v95.627h0.109c0,0.109-0.016,0.219-0.016,0.344c0,5.873,4.765,10.652,10.653,10.652
	c5.888,0,10.668-4.779,10.668-10.652c0-0.438-0.031-0.875-0.078-1.281v-94.689h-21.336V277.26z"/>
<g>
</g>
<g>
</g>
<g>
</g>
<g>
</g>
<g>
</g>
<g>
</g>
<g>
</g>
<g>
</g>
<g>
</g>
<g>
</g>
<g>
</g>
<g>
</g>
<g>
</g>
<g>
</g>
<g>
</g>
</svg>
